<?xml version="1.0" encoding="UTF-8"?>
<svg width="696px" height="313px" viewBox="0 0 696 313" version="1.1" xmlns="http://www.w3.org/2000/svg" xmlns:xlink="http://www.w3.org/1999/xlink">
    <!-- Generator: Sketch 60.1 (88133) - https://sketch.com -->
    <title>roots</title>
    <desc>Created with Sketch.</desc>
    <g id="Page-1" stroke="none" stroke-width="1" fill="none" fill-rule="evenodd">
        <g id="roots" transform="translate(3.500000, 3.500000)" stroke="#FFFFFF" stroke-width="7">
            <path d="M344.5,0.5 C343.833333,11.3880208 343.833333,27.4596354 344.5,48.7148438 C345.5,80.5976562 308.702456,88.9151097 273.9375,96.3515625 C254.3125,100.549479 244.5,116.425781 244.5,143.980469 L244.5,190.644531" id="Path-3"></path>
            <path d="M344.508774,130.5 C344.135515,136.627014 344.135515,145.670991 344.508774,157.631931 C345.068662,175.573341 324.466145,180.25382 305.00165,184.438534 C294.01384,186.800827 288.519936,195.734895 288.519936,211.24074 L288.519936,237.5" id="Path-3-Copy-2"></path>
            <path d="M444.480068,40.5 C443.813534,51.3797447 443.813534,67.4391431 444.480068,88.678195 C445.479869,120.536773 408.689659,128.847904 373.931633,136.278705 C354.310544,140.47343 344.5,156.337665 344.5,183.871407 L344.5,230.5" id="Path-3" transform="translate(394.500000, 135.500000) scale(-1, 1) translate(-394.500000, -135.500000) "></path>
            <path d="M400.488838,173.5 C400.115579,179.627014 400.115579,188.670991 400.488838,200.631931 C401.048727,218.573341 380.446209,223.25382 360.981714,227.438534 C349.993905,229.800827 344.5,238.734895 344.5,254.24074 L344.5,280.5" id="Path-3-Copy" transform="translate(372.500000, 227.000000) scale(-1, 1) translate(-372.500000, -227.000000) "></path>
            <line x1="345" y1="9" x2="345" y2="306" id="Line-2" stroke-linecap="square"></line>
            <line x1="0.5" y1="0.5" x2="688.5" y2="0.5" id="Line" stroke-linecap="square"></line>
        </g>
    </g>
</svg>