<?xml version="1.0" encoding="UTF-8"?>
<svg width="242px" height="242px" viewBox="0 0 242 242" version="1.1" xmlns="http://www.w3.org/2000/svg" xmlns:xlink="http://www.w3.org/1999/xlink">
    <!-- Generator: Sketch 60.1 (88133) - https://sketch.com -->
    <title>experiments</title>
    <desc>Created with Sketch.</desc>
    <g id="Page-1" stroke="none" stroke-width="1" fill="none" fill-rule="evenodd">
        <g id="experiments" transform="translate(1.000000, 1.000000)">
            <rect id="Rectangle-Copy-2" stroke-opacity="0.01" stroke="#6095F2" x="0" y="0" width="240" height="240"></rect>
            <g id="Group" transform="translate(72.723911, 54.047852)">
                <path d="M46.8693466,0.952148438 L34.6968291,0.952148438 C34.0495799,0.952148438 33.4288404,1.20663448 32.9711661,1.65962253 C32.0181088,2.60292132 32.0181088,4.13231083 32.9711661,5.07560962 L35.6267253,7.70397806 L35.6267253,30.2962615 C35.6267253,33.9260622 34.7412044,37.5021948 33.0454422,40.7206463 L1.65891949,100.290318 C0.750475454,102.014489 0.276089236,103.930274 0.276089236,105.87481 C0.276089236,112.54494 5.73923594,117.952148 12.4783689,117.952148 L46.8693466,117.952148 L47.6828319,117.952148 L82.0738095,117.952148 C88.8129425,117.952148 94.2760892,112.54494 94.2760892,105.87481 C94.2760892,103.930274 93.801703,102.014489 92.893259,100.290318 L61.5067363,40.7206463 C59.8109741,37.5021948 58.9254531,33.9260622 58.9254531,30.2962615 L58.9254531,7.70397806 L61.5810123,5.07560962 C62.5340697,4.13231083 62.5340697,2.60292132 61.5810123,1.65962253 C61.1233381,1.20663448 60.5025986,0.952148438 59.8553494,0.952148438 L47.6828319,0.952148438 L46.8693466,0.952148438 Z" id="Path-4" stroke="#FFFFFF" stroke-width="7"></path>
                <path d="M29.3536866,64.9521484 L11.4553905,99.0839477 C9.88298881,102.689115 9.88298881,105.659942 11.4553905,107.996429 C13.0277922,110.332915 15.6672583,111.284163 19.3737889,110.850173 L77.8746756,110.850173 C80.9790638,110.892018 83.1697889,109.656195 84.446851,107.142704 C85.7239131,104.629213 85.5259278,101.942961 83.8528952,99.0839477 L65.377012,64.9521484 L29.3536866,64.9521484 Z" id="Path-5" fill="#FFFFFF"></path>
            </g>
        </g>
    </g>
</svg>