<?xml version="1.0" encoding="UTF-8"?>
<svg width="696px" height="195px" viewBox="0 0 696 195" version="1.1" xmlns="http://www.w3.org/2000/svg" xmlns:xlink="http://www.w3.org/1999/xlink">
    <!-- Generator: Sketch 60.1 (88133) - https://sketch.com -->
    <title>ground</title>
    <desc>Created with Sketch.</desc>
    <g id="Page-1" stroke="none" stroke-width="1" fill="none" fill-rule="evenodd">
        <g id="ground" transform="translate(3.500000, 4.000000)">
            <line x1="344.5" y1="0" x2="344.5" y2="187.5" id="Line-2" stroke="#FFFFFF" stroke-width="7" stroke-linecap="round"></line>
            <line x1="344.5" y1="16" x2="344.5" y2="0" id="Line-7" stroke="#FFFFFF" stroke-width="7" stroke-linecap="square"></line>
            <line x1="0.5" y1="100.5" x2="688.5" y2="100.5" id="Line" stroke="#FFFFFF" stroke-width="7" stroke-linecap="round"></line>
            <g id="Group-5" transform="translate(21.500000, 57.500000)">
                <path d="M44.148423,20.59375 C40.0383969,28.655599 32.2275245,32.6865234 20.7158058,32.6865234 C4.51693384,32.6865234 4.62646358,16.7062974 4.70207091,10.1093826 C4.70705904,9.67415705 -0.373634805,8.96835527 0.021958108,8.75097656 C1.16746592,8.12151887 4.73413566,8.12151887 4.84997685,6.79960441 C5.22569412,2.51213033 6.58609233,0 11.3661964,0 C15.5354672,0 17.4739438,3.63541667 17.1816261,10.90625 C18.03822,14.8867188 20.7876875,18.1158854 25.4300286,20.59375 C30.0723696,23.0716146 36.3118344,23.0716146 44.148423,20.59375 Z" id="Path-6" fill="#FFFFFF" transform="translate(22.074211, 16.343262) scale(-1, 1) translate(-22.074211, -16.343262) "></path>
                <line x1="27.5" y1="32.5" x2="27.5" y2="39.5" id="Line-3" stroke="#FFFFFF" stroke-linecap="square"></line>
            </g>
        </g>
    </g>
</svg>