<?xml version="1.0" encoding="UTF-8"?>
<svg width="120px" height="200px" viewBox="0 0 120 200" version="1.1" xmlns="http://www.w3.org/2000/svg" xmlns:xlink="http://www.w3.org/1999/xlink">
    <!-- Generator: Sketch 60.1 (88133) - https://sketch.com -->
    <title>leaf</title>
    <desc>Created with Sketch.</desc>
    <g id="Page-1" stroke="none" stroke-width="1" fill="none" fill-rule="evenodd">
        <g id="leaf" transform="translate(-20.000000, 5.000000)" stroke="#FFFFFF" stroke-width="7">
            <path d="M80,24 C110.927946,24 136,49.072054 136,80 L136,136 L136,136 L80,136 C49.072054,136 24,110.927946 24,80 C24,49.072054 49.072054,24 80,24 Z" id="Rectangle" transform="translate(80.000000, 80.000000) rotate(-135.000000) translate(-80.000000, -80.000000) "></path>
            <path d="M30.3453344,53.3555259 C58.4800432,56.5066049 80.3453344,80.2174822 80.3453344,109 L80.3453344,165" id="Path"></path>
            <path d="M80.3453344,53.3555259 C107.917349,56.5066049 129.345334,80.2174822 129.345334,109 L129.345334,195" id="Path" transform="translate(104.845334, 124.177763) scale(-1, 1) translate(-104.845334, -124.177763) "></path>
        </g>
    </g>
</svg>