<?xml version="1.0" encoding="UTF-8"?>
<svg width="120px" height="145px" viewBox="0 0 120 145" version="1.1" xmlns="http://www.w3.org/2000/svg" xmlns:xlink="http://www.w3.org/1999/xlink">
    <!-- Generator: Sketch 60.1 (88133) - https://sketch.com -->
    <title>leaf</title>
    <desc>Created with Sketch.</desc>
    <g id="Page-1" stroke="none" stroke-width="1" fill="none" fill-rule="evenodd">
        <g id="leaf" transform="translate(-20.000000, 5.000000)" stroke="#FFFFFF" stroke-width="7">
            <path d="M80,24 C110.927946,24 136,49.072054 136,80 L136,136 L136,136 L80,136 C49.072054,136 24,110.927946 24,80 C24,49.072054 49.072054,24 80,24 Z" id="Rectangle" transform="translate(80.000000, 80.000000) rotate(-135.000000) translate(-80.000000, -80.000000) "></path>
            <path d="M66.0608731,34.7870221 L105.658853,74.3850019 C120.757871,89.4840197 125.432242,111.060082 119.681968,130.169442" id="Rectangle" transform="translate(94.060873, 82.478232) rotate(-135.000000) translate(-94.060873, -82.478232) "></path>
            <path d="M37.4818035,34.7870221 L77.0797832,74.3850019 C92.178801,89.4840197 96.8531729,111.060082 91.1028988,130.169442" id="Rectangle" transform="translate(65.481803, 82.478232) scale(-1, 1) rotate(-135.000000) translate(-65.481803, -82.478232) "></path>
        </g>
    </g>
</svg>