<?xml version="1.0" encoding="UTF-8"?>
<svg width="242px" height="242px" viewBox="0 0 242 242" version="1.1" xmlns="http://www.w3.org/2000/svg" xmlns:xlink="http://www.w3.org/1999/xlink">
    <!-- Generator: Sketch 60.1 (88133) - https://sketch.com -->
    <title>mobile</title>
    <desc>Created with Sketch.</desc>
    <g id="Page-1" stroke="none" stroke-width="1" fill="none" fill-rule="evenodd">
        <g id="mobile" transform="translate(1.000000, 1.000000)">
            <rect id="Rectangle" stroke-opacity="0.01" stroke="#6095F2" x="0" y="0" width="240" height="240"></rect>
            <g id="Group-2" transform="translate(86.000000, 54.000000)" stroke="#FFFFFF">
                <rect id="Rectangle" stroke-width="7" x="0" y="0" width="69" height="133" rx="11"></rect>
                <rect id="Rectangle" stroke-width="3" fill="#FFFFFF" x="11.5" y="15.5" width="10" height="11" rx="3"></rect>
                <rect id="Rectangle-Copy-5" stroke-width="3" fill="#FFFFFF" x="11.5" y="34.5" width="10" height="11" rx="3"></rect>
                <rect id="Rectangle-Copy-3" stroke-width="3" fill="#FFFFFF" x="29.5" y="15.5" width="10" height="11" rx="3"></rect>
                <rect id="Rectangle-Copy-6" stroke-width="3" fill="#FFFFFF" x="29.5" y="34.5" width="10" height="11" rx="3"></rect>
                <rect id="Rectangle-Copy-4" stroke-width="3" fill="#FFFFFF" x="46.5" y="15.5" width="10" height="11" rx="3"></rect>
                <rect id="Rectangle-Copy-7" stroke-width="3" fill="#FFFFFF" x="46.5" y="34.5" width="10" height="11" rx="3"></rect>
                <rect id="Rectangle-Copy-10" stroke-width="3" fill="#FFFFFF" x="11.5" y="52.5" width="10" height="11" rx="3"></rect>
                <rect id="Rectangle-Copy-9" stroke-width="3" fill="#FFFFFF" x="29.5" y="52.5" width="10" height="11" rx="3"></rect>
                <rect id="Rectangle-Copy-8" stroke-width="3" fill="#FFFFFF" x="46.5" y="52.5" width="10" height="11" rx="3"></rect>
                <rect id="Rectangle-Copy-13" stroke-width="3" fill="#FFFFFF" x="11.5" y="70.5" width="10" height="11" rx="3"></rect>
                <rect id="Rectangle-Copy-12" stroke-width="3" fill="#FFFFFF" x="29.5" y="70.5" width="10" height="11" rx="3"></rect>
                <rect id="Rectangle-Copy-11" stroke-width="3" fill="#FFFFFF" x="46.5" y="70.5" width="10" height="11" rx="3"></rect>
                <rect id="Rectangle-Copy-16" stroke-width="3" fill="#FFFFFF" x="11.5" y="89.5" width="10" height="11" rx="3"></rect>
                <rect id="Rectangle-Copy-15" stroke-width="3" fill="#FFFFFF" x="29.5" y="89.5" width="10" height="11" rx="3"></rect>
                <rect id="Rectangle-Copy-17" stroke-width="3" fill="#FFFFFF" x="29.5" y="114.5" width="10" height="10" rx="5"></rect>
            </g>
        </g>
    </g>
</svg>