<?xml version="1.0" encoding="UTF-8"?>
<svg width="242px" height="242px" viewBox="0 0 242 242" version="1.1" xmlns="http://www.w3.org/2000/svg" xmlns:xlink="http://www.w3.org/1999/xlink">
    <!-- Generator: Sketch 60.1 (88133) - https://sketch.com -->
    <title>onigiri</title>
    <desc>Created with Sketch.</desc>
    <g id="Page-1" stroke="none" stroke-width="1" fill="none" fill-rule="evenodd">
        <g id="onigiri" transform="translate(1.000000, 1.000000)">
            <rect id="Rectangle" stroke-opacity="0.01" stroke="#6095F2" x="0" y="0" width="240" height="240"></rect>
            <path d="M139.677398,82.3547964 L181.08065,165.161301 C186.514414,176.028828 182.109478,189.243635 171.241951,194.677398 C168.187132,196.204808 164.818644,197 161.403252,197 L78.5967478,197 C66.4464833,197 56.5967478,187.150264 56.5967478,175 C56.5967478,171.584608 57.3919398,168.21612 58.9193496,165.161301 L100.322602,82.3547964 C105.756365,71.4872695 118.971172,67.0823338 129.838699,72.5160973 C134.096302,74.6448987 137.548597,78.0971936 139.677398,82.3547964 Z" id="Triangle" stroke="#FFFFFF" stroke-width="7"></path>
            <path d="M83.5037478,115.991676 L178.687748,160.376676 L181.08065,165.161301 C186.514414,176.028828 182.109478,189.243635 171.241951,194.677398 C168.187132,196.204808 164.818644,197 161.403252,197 L78.5967478,197 C66.4464833,197 56.5967478,187.150264 56.5967478,175 C56.5967478,171.584608 57.3919398,168.21612 58.9193496,165.161301 L83.5037478,115.991676 Z" id="Combined-Shape" stroke="#FFFFFF" stroke-width="7"></path>
            <line x1="118.5" y1="130.5" x2="152.5" y2="109.5" id="Line-6" stroke="#FFFFFF" stroke-width="7" stroke-linecap="square"></line>
            <polygon id="Path-8" fill="#FFFFFF" points="118.5 132.024414 84.4833984 115.991676 103.931641 77.5263672 118.5 69.7207031 135.5 76.0234375 152.5 109.5"></polygon>
        </g>
    </g>
</svg>