<?xml version="1.0" encoding="UTF-8"?>
      <svg width="148px" height="148px" viewBox="0 0 148 148" version="1.1" xmlns="http://www.w3.org/2000/svg" xmlns:xlink="http://www.w3.org/1999/xlink">
          <!-- Generator: Sketch 60.1 (88133) - https://sketch.com -->
          <title>Combined Shape</title>
          <desc>Created with Sketch.</desc>
          <g id="Page-1" stroke="none" stroke-width="1" fill="none" fill-rule="evenodd">
              <path d="M98,1 C104.627417,1 110,6.372583 110,13 L110,38 L135,38 C141.627417,38 147,43.372583 147,50 L147,98 C147,104.627417 141.627417,110 135,110 L110,110 L110,135 C110,141.627417 104.627417,147 98,147 L50,147 C43.372583,147 38,141.627417 38,135 L38,109.999 L13,110 C6.372583,110 1,104.627417 1,98 L1,50 C1,43.372583 6.372583,38 13,38 L38,37.999 L38,13 C38,6.372583 43.372583,1 50,1 L98,1 Z" id="Combined-Shape" stroke="#979797" fill="#D8D8D8"></path>
          </g>
      </svg>