<?xml version="1.0" encoding="UTF-8"?>
<svg width="242px" height="242px" viewBox="0 0 242 242" version="1.1" xmlns="http://www.w3.org/2000/svg" xmlns:xlink="http://www.w3.org/1999/xlink">
    <!-- Generator: Sketch 60.1 (88133) - https://sketch.com -->
    <title>bowl copy</title>
    <desc>Created with Sketch.</desc>
    <g id="Page-1" stroke="none" stroke-width="1" fill="none" fill-rule="evenodd">
        <g id="bowl-copy" transform="translate(1.000000, 1.000000)">
            <rect id="Rectangle" stroke-opacity="0.01" stroke="#6095F2" x="0" y="0" width="240" height="240"></rect>
            <path d="M178,120 C178,147.205323 159.269232,170.035842 134.000264,176.298987 L134,184 L106,184 L106.000739,176.299236 C81.0287911,170.110185 62.4419977,147.741014 62.0077703,120.959136 L62,120 L178,120 Z" id="Combined-Shape" stroke="#FFFFFF" stroke-width="7"></path>
            <line x1="159.5" y1="56.5" x2="21.5" y2="56.5" id="Line-4" stroke="#FFFFFF" stroke-width="7" stroke-linecap="square"></line>
            <path d="M137.168945,62.5 C137.040211,73 133.294922,71.2441406 133.294922,80.3261719 C133.294922,89.4082031 139.65625,92.3515625 139.65625,99.7294922 C139.65625,107.107422 133.294922,110.020508 133.294922,120" id="Path-7" stroke="#FFFFFF" stroke-width="7"></path>
            <path d="M124.874023,62.5 C124.745289,73 121,71.2441406 121,80.3261719 C121,89.4082031 127.361328,92.3515625 127.361328,99.7294922 C127.361328,107.107422 121,110.020508 121,120" id="Path-7-Copy" stroke="#FFFFFF" stroke-width="7"></path>
            <path d="M112.874023,62.5 C112.745289,73 109,71.2441406 109,80.3261719 C109,89.4082031 115.361328,92.3515625 115.361328,99.7294922 C115.361328,107.107422 109,110.020508 109,120" id="Path-7-Copy-2" stroke="#FFFFFF" stroke-width="7"></path>
        </g>
    </g>
</svg>