<?xml version="1.0" encoding="UTF-8"?>
<svg width="696px" height="392px" viewBox="0 0 696 392" version="1.1" xmlns="http://www.w3.org/2000/svg" xmlns:xlink="http://www.w3.org/1999/xlink">
    <!-- Generator: Sketch 60.1 (88133) - https://sketch.com -->
    <title>roots</title>
    <desc>Created with Sketch.</desc>
    <g id="Page-1" stroke="none" stroke-width="1" fill="none" fill-rule="evenodd">
        <g id="roots" transform="translate(3.500000, 3.500000)">
            <path d="M344.5,166.5 C344.5,166.719391 344.5,172.072977 344.5,182.560757 C344.5,193.98842 337.650879,198.5 331.11377,198.5 C326.101877,198.5 311.632765,198.5 306.762207,198.5 C300.763788,198.5 292.5,201.906813 292.5,212.399414 C292.5,217.343925 292.5,230.04412 292.5,250.5" id="Path-3-Copy" stroke="#FFFFFF" stroke-width="7" stroke-linecap="round"></path>
            <path d="M241.5,182.560757 C241.5,193.98842 235.020374,197.544186 228.977945,197.970269 C224.409313,198.292428 209.250816,198.292428 204.8075,198.292428 C199.335258,198.292428 189.5,198.292428 189.5,215.407151 C189.5,220.351662 189.5,228.715945 189.5,240.5" id="Path-3-Copy-4" stroke="#FFFFFF" stroke-width="7" stroke-linecap="round"></path>
            <path d="M499.5,209.5 C499.5,220.927663 493.020374,224.483428 486.977945,224.909512 C482.409313,225.231671 467.250816,225.231671 462.8075,225.231671 C457.335258,225.231671 447.5,225.231671 447.5,242.346394 C447.5,247.290905 447.5,255.655188 447.5,267.439243" id="Path-3-Copy-4" stroke="#FFFFFF" stroke-width="7" stroke-linecap="round" transform="translate(473.500000, 238.469621) scale(-1, 1) translate(-473.500000, -238.469621) "></path>
            <path d="M344.5,250.5 C344.5,250.675804 344.5,254.96578 344.5,263.369929 C344.5,271.67334 336.468262,276.5 330.897949,276.5 C326.497455,276.5 309.95406,276.5 305.681641,276.5 C300.419869,276.5 292.5,281.633301 292.5,289.690652 C292.5,293.652825 292.5,297.922608 292.5,302.5" id="Path-3-Copy-3" stroke="#FFFFFF" stroke-width="7" stroke-linecap="round"></path>
            <path d="M396.5,224.5 C396.5,224.675804 396.5,228.96578 396.5,237.369929 C396.5,245.67334 388.468262,250.5 382.897949,250.5 C378.497455,250.5 361.95406,250.5 357.681641,250.5 C352.419869,250.5 344.5,255.633301 344.5,263.690652 C344.5,267.652825 344.5,271.922608 344.5,276.5" id="Path-3-Copy-3" stroke="#FFFFFF" stroke-width="7" stroke-linecap="round" transform="translate(370.500000, 250.500000) scale(-1, 1) translate(-370.500000, -250.500000) "></path>
            <path d="M292.5,211.607422 C292.5,221.645234 287.632493,224.768541 283.093408,225.142804 C279.661443,225.425781 282.336851,225.425781 278.999023,225.425781 C274.888265,225.425781 267.5,225.425781 267.5,240.458984 C267.5,244.802136 267.5,249.482474 267.5,254.5" id="Path-3-Copy-6" stroke="#FFFFFF" stroke-width="7" stroke-linecap="round"></path>
            <path d="M344.5,308.5 C344.5,308.635234 344.5,311.935216 344.5,318.399945 C344.5,325.444024 339.632493,327.635819 335.093408,327.898459 C331.661443,328.097039 334.336851,328.097039 330.999023,328.097039 C326.888265,328.097039 319.5,328.097039 319.5,338.646656 C319.5,341.694481 319.5,344.978929 319.5,348.5" id="Path-3-Copy-9" stroke="#FFFFFF" stroke-width="7" stroke-linecap="round"></path>
            <path d="M369.5,288.5 C369.5,288.597837 369.5,290.985246 369.5,295.66223 C369.5,300.758349 366.384795,302.344029 363.479781,302.534039 C361.283324,302.677704 353.995585,302.677704 351.859375,302.677704 C347.743164,302.677704 344.5,305 344.5,310.309946 C344.5,312.51493 344.5,316.244948 344.5,321.5" id="Path-3-Copy-8" stroke="#FFFFFF" stroke-width="7" stroke-linecap="round" transform="translate(357.000000, 305.000000) scale(-1, 1) translate(-357.000000, -305.000000) "></path>
            <path d="M344.5,91.5 C344.5,91.8854167 344.5,101.290365 344.5,119.714844 C344.5,139.790467 331.665357,146.037083 319.696698,146.785608 C310.647293,147.351563 280.621809,147.351563 271.820625,147.351563 C254.861836,147.351563 241.5,156.5 241.5,177.417969 C241.5,186.104271 241.5,200.798282 241.5,221.5" id="Path-3" stroke="#FFFFFF" stroke-width="7" stroke-linecap="round"></path>
            <path d="M447.5,117.5 C447.5,117.885417 447.5,127.290365 447.5,145.714844 C447.5,165.790467 434.665357,172.037083 422.696698,172.785608 C413.647293,173.351563 383.621809,173.351563 374.820625,173.351563 C357.861836,173.351563 344.5,182.5 344.5,203.417969 C344.5,212.104271 344.5,226.798282 344.5,247.5" id="Path-3" stroke="#FFFFFF" stroke-width="7" stroke-linecap="round" transform="translate(396.000000, 182.500000) scale(-1, 1) translate(-396.000000, -182.500000) "></path>
            <line x1="344.5" y1="0" x2="344.5" y2="385" id="Line-2" stroke="#FFFFFF" stroke-width="7" stroke-linecap="round"></line>
            <line x1="0.5" y1="119.5" x2="688.5" y2="119.5" id="Line" stroke="#FFFFFF" stroke-width="7" stroke-linecap="round"></line>
            <path d="M65.1103516,104.15332 C59.6669922,107.508789 51.1894531,109.186523 39.6777344,109.186523 C23.4788625,109.186523 23.5883922,95.2062974 23.6639995,88.6093826 C23.6689876,88.174157 19.5,86.713939 19.5,86.3491211 C19.5,84.9600096 23.6960643,84.6215189 23.8119055,83.2996044 C24.1876227,79.0121303 25.5480209,75.5 30.328125,75.5 C34.4973958,75.5 36.4358724,79.46875 36.1435547,87.40625 C37.0001486,91.3867188 39.7496161,94.6158854 44.3919572,97.09375 C49.0342982,99.5716146 55.9404297,101.924805 65.1103516,104.15332 Z" id="Path-6" fill="#FFFFFF" transform="translate(42.305176, 92.343262) scale(-1, 1) translate(-42.305176, -92.343262) "></path>
            <line x1="46" y1="109" x2="46" y2="116" id="Line-3" stroke="#FFFFFF" stroke-linecap="square"></line>
        </g>
    </g>
</svg>