<?xml version="1.0" encoding="UTF-8"?>
<svg width="208px" height="303px" viewBox="0 0 208 303" version="1.1" xmlns="http://www.w3.org/2000/svg" xmlns:xlink="http://www.w3.org/1999/xlink">
    <!-- Generator: Sketch 60.1 (88133) - https://sketch.com -->
    <title>roots</title>
    <desc>Created with Sketch.</desc>
    <g id="Page-1" stroke="none" stroke-width="1" fill="none" fill-rule="evenodd">
        <g id="roots" transform="translate(-51.500000, 4.000000)" stroke="#FFFFFF" stroke-width="7">
            <path d="M155.5,76.5 C155.5,76.719391 155.5,82.0729768 155.5,92.5607572 C155.5,103.98842 148.650879,108.5 142.11377,108.5 C137.101877,108.5 122.632765,108.5 117.762207,108.5 C111.763788,108.5 103.5,111.906813 103.5,122.399414 C103.5,127.343925 103.5,140.04412 103.5,160.5" id="Path-3-Copy" stroke-linecap="round"></path>
            <path d="M155.5,160.5 C155.5,160.675804 155.5,164.96578 155.5,173.369929 C155.5,181.67334 147.468262,186.5 141.897949,186.5 C137.497455,186.5 120.95406,186.5 116.681641,186.5 C111.419869,186.5 103.5,191.633301 103.5,199.690652 C103.5,203.652825 103.5,207.922608 103.5,212.5" id="Path-3-Copy-3" stroke-linecap="round"></path>
            <path d="M207.5,134.5 C207.5,134.675804 207.5,138.96578 207.5,147.369929 C207.5,155.67334 199.468262,160.5 193.897949,160.5 C189.497455,160.5 172.95406,160.5 168.681641,160.5 C163.419869,160.5 155.5,165.633301 155.5,173.690652 C155.5,177.652825 155.5,181.922608 155.5,186.5" id="Path-3-Copy-3" stroke-linecap="round" transform="translate(181.500000, 160.500000) scale(-1, 1) translate(-181.500000, -160.500000) "></path>
            <path d="M103.5,121.607422 C103.5,131.645234 98.6324927,134.768541 94.0934079,135.142804 C90.661443,135.425781 93.3368512,135.425781 89.9990234,135.425781 C85.8882646,135.425781 78.5,135.425781 78.5,150.458984 C78.5,154.802136 78.5,159.482474 78.5,164.5" id="Path-3-Copy-6" stroke-linecap="round"></path>
            <path d="M255.5,112 C255.5,122.037812 250.632493,125.16112 246.093408,125.535382 C242.661443,125.818359 245.336851,125.818359 241.999023,125.818359 C237.888265,125.818359 230.5,125.818359 230.5,140.851563 C230.5,145.194714 230.5,149.875052 230.5,154.892578" id="Path-3-Copy-7" stroke-linecap="round"></path>
            <path d="M155.5,218.5 C155.5,218.635234 155.5,221.935216 155.5,228.399945 C155.5,235.444024 150.632493,237.635819 146.093408,237.898459 C142.661443,238.097039 145.336851,238.097039 141.999023,238.097039 C137.888265,238.097039 130.5,238.097039 130.5,248.646656 C130.5,251.694481 130.5,254.978929 130.5,258.5" id="Path-3-Copy-9" stroke-linecap="round"></path>
            <path d="M112.09668,57.3076172 C105.561523,57.3076172 100.5,64.8652344 100.5,71.7060547 C100.5,78.073558 100.5,84.7143461 100.5,88.6466557" id="Path-3-Copy-9" stroke-linecap="round"></path>
            <path d="M180.5,198.5 C180.5,198.597837 180.5,200.985246 180.5,205.66223 C180.5,210.758349 177.384795,212.344029 174.479781,212.534039 C172.283324,212.677704 164.995585,212.677704 162.859375,212.677704 C158.743164,212.677704 155.5,215 155.5,220.309946 C155.5,222.51493 155.5,226.244948 155.5,231.5" id="Path-3-Copy-8" stroke-linecap="round" transform="translate(168.000000, 215.000000) scale(-1, 1) translate(-168.000000, -215.000000) "></path>
            <path d="M155.5,1.5 C155.5,1.88541667 155.5,11.2903646 155.5,29.7148438 C155.5,49.7904674 142.665357,56.037083 130.696698,56.7856085 C121.647293,57.3515625 94.6218092,57.3515625 85.820625,57.3515625 C68.8618359,57.3515625 55.5,66.5 55.5,87.4179687 C55.5,96.1042712 55.5,104.131615 55.5,111.5" id="Path-3" stroke-linecap="round"></path>
            <path d="M255.5,27.5 C255.5,27.8854167 255.5,37.2903646 255.5,55.7148438 C255.5,75.7904674 241.699308,82.037083 228.829783,82.7856085 C219.09924,83.3515625 197.566462,83.3515625 188.102823,83.3515625 C169.867566,83.3515625 155.5,92.5 155.5,113.417969 C155.5,122.104271 155.5,130.131615 155.5,137.5" id="Path-3" stroke-linecap="round" transform="translate(205.500000, 82.500000) scale(-1, 1) translate(-205.500000, -82.500000) "></path>
            <line x1="155.5" y1="1.5" x2="155.5" y2="295" id="Line-2" stroke-linecap="round"></line>
            <line x1="155.5" y1="16" x2="155.5" y2="0" id="Line-7" stroke-linecap="square"></line>
        </g>
    </g>
</svg>