<?xml version="1.0" encoding="UTF-8"?>
<svg width="696px" height="273px" viewBox="0 0 696 273" version="1.1" xmlns="http://www.w3.org/2000/svg" xmlns:xlink="http://www.w3.org/1999/xlink">
    <!-- Generator: Sketch 60.1 (88133) - https://sketch.com -->
    <title>roots</title>
    <desc>Created with Sketch.</desc>
    <g id="Page-1" stroke="none" stroke-width="1" fill="none" fill-rule="evenodd" stroke-linecap="round">
        <g id="roots" transform="translate(3.500000, 3.500000)" stroke="#FFFFFF" stroke-width="7">
            <path d="M344.5,77.5 C344.5,77.719391 344.5,83.0729768 344.5,93.5607572 C344.5,104.98842 337.397333,108.544186 330.773901,108.970269 C325.765978,109.292428 309.149933,109.292428 304.279375,109.292428 C298.280956,109.292428 287.5,109.292428 287.5,126.407151 C287.5,131.351662 287.5,146.382612 287.5,171.5" id="Path-3-Copy"></path>
            <path d="M244.5,87.5 C244.5,87.719391 244.5,93.0729768 244.5,103.560757 C244.5,114.98842 237.397333,118.544186 230.773901,118.970269 C225.765978,119.292428 209.149933,119.292428 204.279375,119.292428 C198.280956,119.292428 187.5,119.292428 187.5,136.407151 C187.5,141.351662 187.5,149.715945 187.5,161.5" id="Path-3-Copy-4"></path>
            <path d="M344.5,143.5 C344.5,143.692708 344.5,148.395182 344.5,157.607422 C344.5,167.645234 338.269591,170.768541 332.459562,171.142804 C328.066647,171.425781 331.49117,171.425781 327.21875,171.425781 C321.956979,171.425781 312.5,171.425781 312.5,186.458984 C312.5,190.802136 312.5,195.482474 312.5,200.5" id="Path-3-Copy-3"></path>
            <path d="M287.5,123.5 C287.5,123.692708 287.5,128.395182 287.5,137.607422 C287.5,147.645234 281.269591,150.768541 275.459562,151.142804 C271.066647,151.425781 274.49117,151.425781 270.21875,151.425781 C264.956979,151.425781 255.5,151.425781 255.5,166.458984 C255.5,170.802136 255.5,175.482474 255.5,180.5" id="Path-3-Copy-6"></path>
            <path d="M344.5,214.5 C344.5,214.635234 344.5,217.935216 344.5,224.399945 C344.5,231.444024 340.216594,233.635819 336.222199,233.898459 C333.20207,234.097039 335.556429,234.097039 332.619141,234.097039 C329.001673,234.097039 322.5,234.097039 322.5,244.646656 C322.5,247.694481 322.5,250.978929 322.5,254.5" id="Path-3-Copy-9"></path>
            <path d="M444.5,30.5 C444.5,30.8854167 444.5,40.2903646 444.5,58.7148438 C444.5,78.7904674 432.039181,85.037083 420.419124,85.7856085 C411.633294,86.3515625 382.482339,86.3515625 373.9375,86.3515625 C357.472656,86.3515625 344.5,95.5 344.5,116.417969 C344.5,125.104271 344.5,153.131615 344.5,200.5" id="Path-3" transform="translate(394.500000, 115.500000) scale(-1, 1) translate(-394.500000, -115.500000) "></path>
            <path d="M394.5,105.5 C394.5,105.692708 394.5,110.395182 394.5,119.607422 C394.5,129.645234 388.269591,132.768541 382.459562,133.142804 C378.066647,133.425781 363.49117,133.425781 359.21875,133.425781 C350.986328,133.425781 344.5,138 344.5,148.458984 C344.5,152.802136 344.5,160.149141 344.5,170.5" id="Path-3-Copy-2" transform="translate(369.500000, 138.000000) scale(-1, 1) translate(-369.500000, -138.000000) "></path>
            <path d="M419.5,146.5 C419.5,146.597837 419.5,148.985246 419.5,153.66223 C419.5,158.758349 416.384795,160.344029 413.479781,160.534039 C411.283324,160.677704 403.995585,160.677704 401.859375,160.677704 C397.743164,160.677704 394.5,163 394.5,168.309946 C394.5,170.51493 394.5,174.244948 394.5,179.5" id="Path-3-Copy-7" transform="translate(407.000000, 163.000000) scale(-1, 1) translate(-407.000000, -163.000000) "></path>
            <path d="M370.5,196.5 C370.5,196.597837 370.5,198.985246 370.5,203.66223 C370.5,208.758349 367.384795,210.344029 364.479781,210.534039 C362.283324,210.677704 354.995585,210.677704 352.859375,210.677704 C348.743164,210.677704 345.5,213 345.5,218.309946 C345.5,220.51493 345.5,224.244948 345.5,229.5" id="Path-3-Copy-8" transform="translate(358.000000, 213.000000) scale(-1, 1) translate(-358.000000, -213.000000) "></path>
            <path d="M494.5,116.5 C494.5,116.692708 494.5,121.395182 494.5,130.607422 C494.5,140.645234 488.269591,143.768541 482.459562,144.142804 C478.066647,144.425781 463.49117,144.425781 459.21875,144.425781 C450.986328,144.425781 444.5,149 444.5,159.458984 C444.5,163.802136 444.5,171.149141 444.5,181.5" id="Path-3-Copy-5" transform="translate(469.500000, 149.000000) scale(-1, 1) translate(-469.500000, -149.000000) "></path>
            <path d="M344.5,0.5 C344.5,0.885416667 344.5,10.2903646 344.5,28.7148438 C344.5,48.7904674 332.039181,55.037083 320.419124,55.7856085 C311.633294,56.3515625 282.482339,56.3515625 273.9375,56.3515625 C257.472656,56.3515625 244.5,65.5 244.5,86.4179687 C244.5,95.1042712 244.5,109.798282 244.5,130.5" id="Path-3"></path>
            <line x1="345" y1="9" x2="345" y2="266" id="Line-2"></line>
            <line x1="0.5" y1="0.5" x2="688.5" y2="0.5" id="Line"></line>
        </g>
    </g>
</svg>